PathFileType	4	(X/Y/Z)	S1_rest_med_right.trc
DataRate	CameraRate	NumFrames	NumMarkers	Units	OrigDataRate	OrigDataStartFrame	OrigNumFrames
250.00	250.00	8	18	mm	250.00	1	24643
Frame#	Time	c7	r_should	l_should	clavicle	r_upa	r_elb_l	r_elb_m	r_low	r_wri_l	r_wri_m	r_met	l_upa	l_elb_l	l_elb_m	l_low	l_wri_l	l_wri_m	l_met
	X1	Y1	Z1	X2	Y2	Z2	X3	Y3	Z3	X4	Y4	Z4	X5	Y5	Z5	X6	Y6	Z6	X7	Y7	Z7	X8	Y8	Z8	X9	Y9	Z9	X10	Y10	Z10	X11	Y11	Z11	X12	Y12	Z12	X13	Y13	Z13	X14	Y14	Z14	X15	Y15	Z15	X16	Y16	Z16	X17	Y17	Z17	X18	Y18	Z18
1	0.00000	440.35294	1421.10791	107.34859	551.02063	1332.88306	259.99527	446.25787	1375.84802	-96.38977	565.43982	1295.79480	54.98679	539.76776	1119.27527	293.54929	552.82770	1018.02698	294.11746	467.09482	1008.33569	232.16928	516.85547	884.60669	281.08768	591.32019	803.60388	270.82489	539.82648	792.72870	214.61072	592.65057	724.67102	294.66470	396.12067	1178.73755	-171.64113	390.17715	1102.10535	-191.51628	330.95740	1068.09644	-122.03466	391.07889	960.66748	-196.44002	488.67480	906.40314	-146.71602	437.16550	871.01074	-189.33319	537.44629	840.23267	-162.78262
2	0.00400	440.29401	1421.10913	107.36142	550.93774	1332.93958	260.02866	446.22372	1375.84900	-96.38580	565.34662	1295.74414	55.02229	539.64124	1119.33362	293.69055	552.70422	1018.09106	294.24915	467.02460	1008.33740	232.29160	516.80188	884.65167	281.24933	591.24298	803.64044	270.96655	539.69775	792.71417	214.79869	592.76630	724.73499	294.70456	395.82776	1178.23462	-171.24562	390.08887	1102.12183	-191.51189	330.87747	1068.10962	-122.02134	390.95892	960.67523	-196.43634	488.54803	906.38062	-146.71356	437.03815	871.01483	-189.34351	537.32062	840.20471	-162.79431
3	0.00800	440.21915	1421.10742	107.35167	550.84436	1332.99097	260.06116	446.19821	1375.84045	-96.38033	565.25500	1295.69250	55.07915	539.51166	1119.39233	293.81992	552.59418	1018.16571	294.37143	466.95377	1008.37256	232.43356	516.76227	884.70959	281.42267	591.18091	803.69843	271.11078	539.56519	792.71924	214.99133	592.89166	724.81323	294.74408	395.69836	1178.09973	-171.13460	390.00928	1102.12708	-191.49280	330.79385	1068.11829	-122.00674	390.83862	960.68396	-196.43529	488.41730	906.35620	-146.72049	436.90964	871.01776	-189.35866	537.18604	840.18158	-162.80621
4	0.01200	440.14532	1421.10950	107.34325	550.73975	1333.05017	260.09494	446.17017	1375.82703	-96.37844	565.15717	1295.64331	55.13503	539.38617	1119.46204	293.94977	552.49426	1018.25079	294.51352	466.90628	1008.40582	232.57301	516.73529	884.78290	281.60898	591.12616	803.76276	271.25937	539.41882	792.73981	215.20702	593.02063	724.89984	294.78073	395.61505	1178.06750	-171.10152	389.93668	1102.11987	-191.46605	330.70798	1068.12585	-121.98832	390.72089	960.68677	-196.43454	488.28336	906.32648	-146.72733	436.78610	871.01208	-189.36870	537.04370	840.14514	-162.81712
5	0.01600	440.06461	1421.11511	107.31606	550.62756	1333.11658	260.13483	446.14963	1375.81030	-96.38122	565.06677	1295.60596	55.20783	539.26715	1119.54138	294.08502	552.42029	1018.34497	294.65771	466.85309	1008.44574	232.72476	516.71765	884.86761	281.81577	591.07727	803.83557	271.40332	539.25677	792.78754	215.45569	593.15363	724.97803	294.81543	395.54568	1178.05237	-171.08136	389.86652	1102.10474	-191.43825	330.62308	1068.12720	-121.98024	390.59879	960.68372	-196.43077	488.14185	906.29138	-146.72417	436.66318	871.00018	-189.37393	536.89978	840.10455	-162.82732
6	0.02000	439.97812	1421.12744	107.28575	550.51202	1333.18640	260.17065	446.12976	1375.78381	-96.38709	564.97443	1295.57446	55.26948	539.16370	1119.63965	294.21927	552.37061	1018.44989	294.79749	466.79623	1008.49030	232.90224	516.70801	884.96326	282.03217	591.03546	803.90643	271.55225	539.09729	792.84363	215.71255	593.28937	725.04309	294.84396	395.47919	1178.03308	-171.06729	389.79196	1102.08582	-191.41101	330.54129	1068.12976	-121.96490	390.47134	960.67786	-196.42831	488.00534	906.25287	-146.72752	436.53201	870.98517	-189.38269	536.76044	840.05334	-162.84045
7	0.02400	439.89108	1421.14001	107.26367	550.39349	1333.26392	260.20001	446.10696	1375.75464	-96.40859	564.88727	1295.55237	55.31855	539.08478	1119.74792	294.36957	552.33807	1018.55609	294.93716	466.74548	1008.51892	233.10423	516.70471	885.06616	282.25034	590.99286	803.97772	271.70563	538.94189	792.90771	215.97772	593.42120	725.08850	294.87271	395.41376	1178.01233	-171.05507	389.70547	1102.07703	-191.40465	330.46072	1068.12671	-121.95322	390.34637	960.66162	-196.42035	487.87488	906.20911	-146.72899	436.38831	870.95581	-189.38347	536.61932	840.00031	-162.85443
8	0.02800	439.80264	1421.15540	107.23183	550.26648	1333.34839	260.22876	446.08826	1375.72852	-96.42545	564.78571	1295.52051	55.35354	539.00385	1119.85132	294.52032	552.32751	1018.66101	295.07779	466.70117	1008.55646	233.32849	516.70642	885.17029	282.47931	590.95502	804.04535	271.85641	538.79358	792.95300	216.21831	593.55237	725.12390	294.89978	395.35538	1177.98889	-171.04550	389.62360	1102.05322	-191.38943	330.37924	1068.12280	-121.94325	390.22491	960.63837	-196.41130	487.74182	906.15686	-146.72696	436.24185	870.91766	-189.37526	536.47485	839.94818	-162.86563
